<svg width="199" height="188" viewBox="0 0 199 188" fill="none" xmlns="http://www.w3.org/2000/svg">
<path opacity="0.438987" d="M25.5494 2.81073C49.8781 6.55708 71.4624 17.1721 93.2021 27.0708C114.925 36.962 138.044 45.7733 154.265 61.4188C170.523 77.1007 178.843 97.2494 186.465 117.025C194.002 136.584 199.795 156.726 198.911 177.267C198.028 197.794 192.253 218.175 181.322 236.555C170.59 254.599 153.604 269.206 136.041 282.974C118.875 296.432 99.9562 307.953 78.962 316.802C57.5973 325.807 35.0328 332.316 11.4262 335.5C-13.2804 338.831 -38.7583 341.14 -63.0039 335.945C-87.6034 330.675 -110.101 319.46 -129.154 305.381C-147.962 291.483 -161.015 273.25 -172.9 254.737C-184.631 236.466 -195.519 217.521 -198.769 196.948C-202.001 176.49 -198.604 155.655 -191.68 135.853C-184.927 116.539 -172.9 99.0063 -158.825 82.7067C-144.999 66.6956 -127.629 53.5731 -109.618 40.8226C-90.6424 27.3894 -72.7889 11.7554 -49.2476 5.13514C-25.3887 -1.57449 0.799217 -1.00053 25.5494 2.81073Z" fill="#463648"/>
</svg>
